<svg id="Layer_1" enable-background="new 0 0 128 128" height="512" viewBox="0 0 128 128" width="512" xmlns="http://www.w3.org/2000/svg"><g><g clip-rule="evenodd" fill-rule="evenodd"><path d="m15.963 86.145h97.05v-46.44c0-3.515-2.857-6.373-6.344-6.373h-84.362c-3.486 0-6.344 2.858-6.344 6.373z" fill="#36434f"/><g><path d="m19.993 82.115h88.991v-42.41c0-1.286-1.058-2.344-2.314-2.344h-84.363c-1.257 0-2.314 1.058-2.314 2.344z" fill="#f4c80f"/><path d="m101.839 82.115h7.145v-42.41c0-1.286-1.058-2.344-2.314-2.344h-7.145c1.257 0 2.314 1.058 2.314 2.344z" fill="#e3ba16"/></g><g><path d="m8.019 86.145h112.91v4.544c0 2.486-2.029 4.544-4.515 4.544h-103.851c-2.486 0-4.544-2.058-4.544-4.544z" fill="#465765"/><path d="m113.813 86.145h7.115v4.544c0 2.486-2.029 4.544-4.515 4.544h-7.145c2.486 0 4.544-2.058 4.544-4.544v-4.544z" fill="#36434f"/></g><path d="m50.371 86.145h28.235v1.829c0 1.001-.829 1.829-1.829 1.829h-24.577c-1 0-1.829-.828-1.829-1.829z" fill="#fff"/></g><path d="m120.929 85.145h-6.916v-45.44c0-4.065-3.294-7.373-7.344-7.373h-84.362c-4.05 0-7.344 3.308-7.344 7.373v45.439h-6.944c-.552 0-1 .447-1 1v4.544c0 3.057 2.487 5.544 5.544 5.544h10.259c.552 0 1-.447 1-1s-.448-1-1-1h-10.259c-1.921 0-3.544-1.623-3.544-3.544v-3.544h5.944 81.046c.553 0 1-.447 1-1s-.447-1-1-1h-79.046v-45.439c0-2.963 2.397-5.373 5.344-5.373h84.362c2.946 0 5.344 2.41 5.344 5.373v45.439h-11.403c-.553 0-1 .447-1 1s.447 1 1 1h13.402 5.916v3.544c0 1.954-1.577 3.544-3.515 3.544h-88.99c-.552 0-1 .447-1 1s.448 1 1 1h88.991c3.041 0 5.515-2.487 5.515-5.544v-4.544c0-.552-.448-.999-1-.999z"/></g></svg>